<svg xmlns="http://www.w3.org/2000/svg" width="12" height="12" viewBox="0 0 12 12" fill="none">
<path fill-rule="evenodd" clip-rule="evenodd" d="M3.79444 3.29471L2.49748 4.58603H8.50005C8.60992 4.58603 8.7153 4.62968 8.79299 4.70737C8.87069 4.78507 8.91433 4.89044 8.91433 5.00032C8.91433 5.11019 8.87069 5.21557 8.79299 5.29326C8.7153 5.37095 8.60992 5.4146 8.50005 5.4146H1.50028C1.41856 5.41416 1.33879 5.38955 1.27102 5.34388C1.20319 5.29817 1.15014 5.23275 1.11906 5.15709C1.08734 5.08164 1.07867 4.99849 1.09415 4.91812C1.10962 4.83785 1.14868 4.76375 1.20606 4.70552L3.20566 2.70593C3.28374 2.62785 3.38963 2.58398 3.50005 2.58398C3.61047 2.58398 3.71636 2.62785 3.79444 2.70593C3.87252 2.784 3.91638 2.8899 3.91638 3.00032C3.91638 3.11071 3.87248 3.21664 3.79444 3.29471ZM10.7291 6.65676C10.7969 6.70247 10.8497 6.76723 10.8808 6.84289C10.9125 6.91833 10.9214 7.00214 10.9059 7.08251C10.8905 7.16279 10.8514 7.23688 10.794 7.29511L8.79419 9.29496C8.75568 9.33379 8.70986 9.36461 8.65937 9.38564C8.60889 9.40667 8.55474 9.4175 8.50005 9.4175C8.44536 9.4175 8.39121 9.40667 8.34072 9.38564C8.29024 9.36461 8.24392 9.33329 8.20541 9.29446C8.16658 9.25594 8.13576 9.21012 8.11472 9.15964C8.09369 9.10916 8.08286 9.05501 8.08286 9.00032C8.08286 8.94563 8.09369 8.89148 8.11472 8.84099C8.13576 8.79051 8.16669 8.74457 8.20552 8.70606L9.50262 7.4146H3.50005C3.39017 7.4146 3.2848 7.37095 3.2071 7.29326C3.12941 7.21557 3.08576 7.11019 3.08576 7.00032C3.08576 6.89044 3.12941 6.78507 3.2071 6.70737C3.2848 6.62968 3.39017 6.58603 3.50005 6.58603H10.4998C10.5815 6.58647 10.6613 6.61108 10.7291 6.65676Z" fill="#999999"/>
</svg>