<svg width="38" height="14" viewBox="0 0 38 14" fill="none" xmlns="http://www.w3.org/2000/svg">
<g id="Group">
<path id="Vector" d="M0 0.015625H9.68048V3.43441H4.22322V5.66889H9.68048V9.08956H4.22322V13.9986H0V0.015625Z" fill="white"/>
<path id="Vector_2" d="M14.9937 0H19.5555V14H14.9937V0Z" fill="white"/>
<path id="Vector_3" d="M30.7696 5.98948V9.0626H33.4352C33.3807 9.2817 33.3035 9.47436 33.2038 9.6368C33.0646 9.86535 32.8859 10.0542 32.6752 10.1978C32.4589 10.3451 32.2106 10.4528 31.9359 10.5189C31.1778 10.704 30.305 10.6379 29.6955 10.364C29.3155 10.194 28.9919 9.95035 28.7361 9.64247C28.4765 9.33081 28.279 8.95305 28.1491 8.52428C28.0156 8.08608 27.9479 7.60254 27.9479 7.08689C27.9479 6.51646 28.0269 5.99514 28.1792 5.53616C28.3316 5.08095 28.5442 4.68807 28.8113 4.36886C29.0747 4.05343 29.3945 3.80788 29.7651 3.63788C30.1357 3.46789 30.557 3.381 31.0142 3.381C31.5597 3.381 32.0526 3.52078 32.4758 3.79843C32.8991 4.0742 33.2509 4.54452 33.5236 5.19617L33.6177 5.42283L37.2277 3.9231L37.1129 3.68699C36.5072 2.43659 35.6738 1.49973 34.6317 0.899083C33.6008 0.302213 32.3837 0 31.016 0C29.9626 0 28.9957 0.171883 28.1379 0.508095C27.2763 0.848084 26.5295 1.32785 25.9162 1.93794C25.3029 2.54803 24.8232 3.29412 24.4922 4.15353C24.1611 5.00917 23.9937 5.96114 23.9937 6.983C23.9937 8.00486 24.1648 8.97571 24.5016 9.83135C24.8383 10.6908 25.318 11.4369 25.9237 12.0526C26.5295 12.6684 27.2669 13.1519 28.1115 13.4919C28.9543 13.83 29.8986 14.0019 30.9145 14.0019C31.6538 14.0019 32.3686 13.9074 33.0421 13.7223C33.7155 13.5353 34.3438 13.2615 34.9063 12.9045C35.4725 12.5475 35.9748 12.0942 36.3962 11.5596C36.8157 11.0289 37.1524 10.4074 37.3988 9.71613C37.5738 9.22315 37.6923 8.68483 37.7487 8.11441C37.8052 7.55343 37.8353 6.92256 37.8353 6.24069V5.99325H30.7696V5.98948Z" fill="white"/>
</g>
</svg>
