<svg width="54" height="20" viewBox="0 0 54 20" fill="none" xmlns="http://www.w3.org/2000/svg">
<g clip-path="url(#clip0_647_550)">
<path d="M0 0.0214844H13.7565V4.90546H6.00142V8.09758H13.7565V12.9842H6.00142V19.9972H0V0.0214844Z" fill="white"/>
<path d="M21.3064 0H27.789V20H21.3064V0Z" fill="white"/>
<path d="M43.7252 8.55639V12.9466H47.5132C47.4356 13.2596 47.326 13.5348 47.1844 13.7669C46.9865 14.0934 46.7326 14.3632 46.4332 14.5683C46.1258 14.7787 45.7729 14.9325 45.3826 15.027C44.3053 15.2914 43.0649 15.197 42.1988 14.8057C41.6588 14.5629 41.199 14.2148 40.8354 13.775C40.4665 13.3297 40.1858 12.7901 40.0014 12.1776C39.8116 11.5515 39.7153 10.8608 39.7153 10.1241C39.7153 9.30923 39.8276 8.56449 40.0441 7.9088C40.2607 7.2585 40.5628 6.69725 40.9424 6.24123C41.3166 5.79061 41.7711 5.43983 42.2977 5.19698C42.8243 4.95413 43.4231 4.83001 44.0727 4.83001C44.8479 4.83001 45.5483 5.02968 46.1498 5.42634C46.7513 5.82029 47.2512 6.49217 47.6388 7.4231L47.7725 7.7469L52.9024 5.60443L52.7393 5.26713C51.8786 3.48084 50.6943 2.14247 49.2133 1.2844C47.7484 0.431732 46.0188 0 44.0754 0C42.5784 0 41.2043 0.245548 39.9853 0.72585C38.761 1.21155 37.6997 1.89692 36.8282 2.76848C35.9568 3.64004 35.2751 4.70588 34.8046 5.93362C34.3341 7.15596 34.0962 8.51592 34.0962 9.97572C34.0962 11.4355 34.3395 12.8224 34.818 14.0448C35.2965 15.2725 35.9781 16.3384 36.8389 17.218C37.6997 18.0977 38.7476 18.7885 39.9479 19.2741C41.1455 19.7572 42.4875 20.0027 43.931 20.0027C44.9816 20.0027 45.9974 19.8678 46.9545 19.6033C47.9115 19.3362 48.8043 18.945 49.6036 18.435C50.4083 17.925 51.122 17.2774 51.7208 16.5138C52.317 15.7555 52.7955 14.8678 53.1457 13.8802C53.3943 13.1759 53.5627 12.4069 53.6429 11.592C53.7231 10.7906 53.7659 9.88937 53.7659 8.91527V8.56179H43.7252V8.55639Z" fill="white"/>
</g>
<defs>
<clipPath id="clip0_647_550">
<rect width="54" height="20" fill="white"/>
</clipPath>
</defs>
</svg>
