<svg width="18" height="18" viewBox="0 0 18 18" fill="none" xmlns="http://www.w3.org/2000/svg">
<path fill-rule="evenodd" clip-rule="evenodd" d="M2.57558 2.57613C2.80989 2.34181 3.18979 2.34181 3.42411 2.57613L8.89377 8.0458C8.95235 8.10437 9.04733 8.10437 9.10591 8.0458L14.5756 2.57613C14.8099 2.34181 15.1898 2.34181 15.4241 2.57613C15.6584 2.81044 15.6584 3.19034 15.4241 3.42465L9.95444 8.89432C9.89586 8.9529 9.89586 9.04788 9.95444 9.10646L15.4241 14.5761C15.6584 14.8104 15.6584 15.1903 15.4241 15.4247C15.1898 15.659 14.8099 15.659 14.5756 15.4247L9.10591 9.95499C9.04733 9.89641 8.95235 9.89641 8.89377 9.95499L3.42411 15.4247C3.18979 15.659 2.80989 15.659 2.57558 15.4247C2.34126 15.1903 2.34126 14.8104 2.57558 14.5761L8.04525 9.10646C8.10383 9.04788 8.10383 8.9529 8.04525 8.89432L2.57558 3.42465C2.34126 3.19034 2.34126 2.81044 2.57558 2.57613Z" fill="#808080"/>
</svg>
