<svg width="16" height="16" viewBox="0 0 16 16" fill="none" xmlns="http://www.w3.org/2000/svg">
<path fill-rule="evenodd" clip-rule="evenodd" d="M2.84007 8C2.84007 7.76858 3.02768 7.58097 3.2591 7.58097L7.58088 7.58097L7.58088 3.2592C7.58088 3.02777 7.76848 2.84017 7.99991 2.84017C8.23133 2.84017 8.41894 3.02777 8.41894 3.2592L8.41894 7.58097L12.7407 7.58097C12.9721 7.58097 13.1597 7.76858 13.1597 8C13.1597 8.23142 12.9721 8.41903 12.7407 8.41903L8.41894 8.41903L8.41894 12.7408C8.41894 12.9722 8.23133 13.1598 7.99991 13.1598C7.76848 13.1598 7.58088 12.9722 7.58088 12.7408L7.58088 8.41903L3.2591 8.41903C3.02768 8.41903 2.84007 8.23142 2.84007 8Z" fill="#999999" stroke="#999999" stroke-width="0.4" stroke-linecap="round" stroke-linejoin="round"/>
</svg>
