<svg width="30" height="46" viewBox="0 0 30 46" fill="none" xmlns="http://www.w3.org/2000/svg">
<g clip-path="url(#clip0_787_14594)">
<path d="M20.7826 4.51595C20.7495 4.56622 20.6256 4.61648 20.4189 4.6835L16.4095 5.82282C16.8642 6.37572 17.3106 6.9035 17.757 7.42289C18.2034 7.94229 18.625 8.47006 19.0549 8.99783C19.1706 9.157 19.2285 9.26591 19.2367 9.32455C19.2367 9.38319 19.1789 9.45859 19.0301 9.55911L18.129 10.2377C17.9802 10.355 17.8893 10.4052 17.8397 10.4052C17.7901 10.4052 17.7239 10.3298 17.6413 10.1874L15.2687 6.61867C14.8967 7.17157 14.5082 7.74123 14.1031 8.3444C13.7063 8.93919 13.326 9.52561 12.9623 10.0953C12.8465 10.2879 12.7639 10.3885 12.7143 10.3968C12.6647 10.3968 12.5572 10.3466 12.4001 10.2125L11.6148 9.60938C11.4329 9.48372 11.342 9.39157 11.3337 9.3413C11.3337 9.29104 11.3916 9.17376 11.5404 8.9727L14.0866 5.81444L10.0276 4.67512C9.82919 4.62486 9.72172 4.57459 9.69692 4.53271C9.67212 4.48244 9.69692 4.34841 9.77959 4.12222L10.0193 3.22584C10.0855 3.03316 10.1351 2.92426 10.1681 2.89913C10.2012 2.87399 10.3252 2.89913 10.5319 2.9829L14.5164 4.51595L14.2932 0.436187C14.2767 0.277017 14.2932 0.159734 14.318 0.0927156C14.3511 0.0256969 14.4834 -0.0078125 14.7066 -0.0078125L15.6572 -0.0078125C15.9052 -0.0078125 16.0458 0.00894219 16.0871 0.0508289C16.1284 0.0927156 16.1367 0.218376 16.1202 0.427809L15.9466 4.50758C16.5666 4.24788 17.2031 3.99656 17.8645 3.75362C18.5258 3.51067 19.1871 3.25935 19.8567 2.99965C20.0551 2.89913 20.1709 2.87399 20.2205 2.89913C20.2701 2.93264 20.3362 3.04992 20.4189 3.26773L20.6917 4.11384C20.7744 4.32327 20.7992 4.45731 20.7661 4.4992L20.7826 4.51595Z" fill="#666666"/>
<path d="M4.49711 45.197C4.49711 45.197 4.43924 45.1551 4.37311 45.0713C2.89336 43.354 1.79388 41.6198 1.07468 39.8522C0.35547 38.0846 0 36.2667 0 34.3902C0 32.5137 0.35547 30.7209 1.07468 28.9533C1.79388 27.1857 2.89336 25.4432 4.37311 23.7091C4.43924 23.6253 4.48057 23.5918 4.49711 23.5918H5.35685C5.45605 23.5918 5.50565 23.5918 5.50565 23.6002C5.50565 23.6086 5.48085 23.6504 5.43125 23.7342C2.87683 27.437 1.59548 30.989 1.59548 34.3902C1.59548 36.1243 1.91788 37.8668 2.57096 39.6344C3.22403 41.402 4.18297 43.2032 5.45605 45.0462C5.53872 45.1467 5.49738 45.1886 5.33205 45.1886H4.49711V45.197Z" fill="#666666"/>
<path d="M21.0223 45.6578C21.0223 45.8338 21.014 45.9343 20.9892 45.9594C20.9644 45.9846 20.8652 45.9929 20.6833 45.9929H9.34138C9.15951 45.9929 9.06031 45.9846 9.03551 45.9594C9.01071 45.9343 9.00244 45.8338 9.00244 45.6578V45.0714C9.00244 44.8955 9.01897 44.795 9.03551 44.7698C9.06031 44.7447 9.15951 44.7363 9.34138 44.7363H20.6833C20.8652 44.7363 20.9644 44.7447 20.9892 44.7698C21.014 44.795 21.0223 44.8955 21.0223 45.0714V45.6578Z" fill="#666666"/>
<path d="M24.5686 45.054C25.8417 43.211 26.8007 41.4015 27.4372 39.6422C28.082 37.8746 28.4044 36.1321 28.4044 34.398C28.4044 32.6639 28.0903 30.9382 27.4537 29.1705C26.8172 27.3945 25.8665 25.5934 24.5934 23.742C24.5438 23.6583 24.519 23.6164 24.519 23.608C24.519 23.5996 24.5604 23.5996 24.643 23.5996H25.478C25.478 23.5996 25.5689 23.6415 25.6516 23.7169C27.1313 25.451 28.2308 27.1935 28.9417 28.9611C29.6527 30.7287 30.0082 32.5382 30.0082 34.398C30.0082 36.2578 29.6527 38.0924 28.9417 39.86C28.2308 41.6277 27.1396 43.3618 25.6516 45.0791C25.5689 45.1629 25.5111 45.2048 25.478 45.2048H24.6678C24.519 45.2048 24.486 45.1545 24.5686 45.0624V45.054Z" fill="#666666"/>
<path d="M10.8708 12.582L6.24146 21.0348" stroke="#666666" stroke-width="1.61" stroke-miterlimit="10"/>
<path d="M23.8496 21.0348L19.2119 12.582" stroke="#666666" stroke-width="1.61" stroke-miterlimit="10"/>
</g>
<defs>
<clipPath id="clip0_787_14594">
<rect width="30" height="46" fill="white"/>
</clipPath>
</defs>
</svg>
