<svg width="69" height="21" viewBox="0 0 69 21" fill="none" xmlns="http://www.w3.org/2000/svg">
<rect x="0.830811" y="0.897545" width="67.4034" height="18" rx="9" transform="rotate(1.02597 0.830811 0.897545)" fill="#1B1B1B"/>
<rect x="0.830811" y="0.897545" width="67.4034" height="18" rx="9" transform="rotate(1.02597 0.830811 0.897545)" stroke="#4B4B4B"/>
<path d="M26.1788 13.969C26.1728 14.305 26.0712 14.6152 25.8861 14.8999C25.701 15.1847 25.4447 15.4201 25.1171 15.6183C24.7895 15.8164 24.4028 15.9655 23.9689 16.0658C23.5228 16.1778 23.042 16.2172 22.5261 16.208C21.9742 16.1981 21.4832 16.1413 21.0534 16.0136C20.6114 15.8976 20.2422 15.735 19.9339 15.5255C19.6256 15.3159 19.39 15.0716 19.2272 14.7807C19.0641 14.5017 18.9857 14.1883 18.992 13.8403C18.998 13.5044 19.0873 13.2059 19.2605 12.921C19.4334 12.648 19.6776 12.4124 19.9932 12.214C20.3088 12.0156 20.6836 11.8663 21.1296 11.7543C21.5635 11.654 22.0565 11.6028 22.6084 11.6127C23.1243 11.622 23.6032 11.6905 24.0452 11.8065C24.475 11.9342 24.8561 12.097 25.1766 12.2948C25.4969 12.5046 25.7446 12.7491 25.9196 13.0282C26.0944 13.3194 26.1848 13.6331 26.1788 13.969ZM18.0196 11.1705C17.9103 11.2405 17.8259 11.263 17.7783 11.2382C17.7186 11.2251 17.6712 11.1882 17.6243 11.1274L17.1425 10.5547C17.06 10.4692 17.0253 10.3966 17.0504 10.337C17.0752 10.2894 17.1243 10.2303 17.1971 10.1836C17.6464 9.8916 18.048 9.58674 18.3897 9.26881C18.7315 8.95087 19.0139 8.59587 19.2369 8.20381C19.4598 7.82373 19.6357 7.38281 19.7645 6.89304C19.8813 6.40305 19.9514 5.84022 19.963 5.19232C19.9638 5.14433 19.9767 5.09655 20.0255 5.04942C20.0622 5.01407 20.0986 4.99072 20.1466 4.99158L21.2015 5.05848C21.2975 5.0602 21.3565 5.12126 21.3543 5.24124C21.3416 5.94913 21.2705 6.57196 21.141 7.09772C21.2554 7.41182 21.4182 7.70278 21.6175 7.97039C21.8165 8.25 22.028 8.50583 22.2638 8.73809C22.4997 8.97035 22.736 9.17862 22.973 9.35089C23.2099 9.52316 23.4475 9.65943 23.6618 9.75928C23.7927 9.82164 23.815 9.91805 23.7286 10.0485L23.2969 10.7009C23.2223 10.8436 23.1139 10.8657 22.9712 10.7911C22.4831 10.5663 22.0324 10.2702 21.6191 9.89073C21.2058 9.51127 20.8534 9.08489 20.5736 8.62381C20.2884 9.13478 19.9321 9.59648 19.5169 9.99711C19.0894 10.4095 18.5904 10.7966 18.0196 11.1705ZM27.7802 8.9929L26.1484 8.96368L26.1054 11.3633C26.1046 11.4113 26.0799 11.4469 26.0553 11.4824C26.0187 11.5178 25.9825 11.5291 25.9465 11.5285L24.8786 11.5094C24.8306 11.5085 24.7949 11.4959 24.7715 11.4594C24.7362 11.4228 24.725 11.3746 24.7259 11.3266L24.8393 4.9916C24.841 4.89562 24.8901 4.83649 24.9981 4.83842L26.0659 4.85755C26.1619 4.85927 26.2208 4.92033 26.2191 5.01631L26.1688 7.82386L27.8006 7.85309C27.8366 7.85373 27.8721 7.87837 27.9077 7.90301C27.9433 7.92765 27.9666 7.96408 27.966 8.00007L27.9509 8.83994C27.9501 8.88793 27.9254 8.92349 27.889 8.94685C27.8524 8.9822 27.8162 8.99355 27.7802 8.9929ZM24.7624 13.9797C24.7658 13.7877 24.7091 13.6067 24.5919 13.4485C24.4745 13.3024 24.3089 13.1674 24.1188 13.056C23.9166 12.9564 23.6901 12.8683 23.4272 12.8036C23.1641 12.7509 22.8768 12.7097 22.5889 12.7045C21.941 12.6929 21.4231 12.7917 21.0233 13.0006C20.6235 13.2094 20.4262 13.5059 20.4191 13.9019C20.4156 14.0939 20.4606 14.2627 20.566 14.4086C20.6714 14.5545 20.813 14.6891 21.0033 14.7885C21.1935 14.8879 21.42 14.976 21.6831 15.0287C21.9462 15.0814 22.2337 15.1106 22.5457 15.1162C22.8336 15.1213 23.122 15.1025 23.3868 15.0592C23.6516 15.0159 23.8811 14.936 24.0868 14.8437C24.2805 14.7512 24.4508 14.6222 24.5734 14.4804C24.6959 14.3385 24.7589 14.1716 24.7624 13.9797ZM39.5426 12.3121L34.9953 12.2306L34.9251 16.154C34.9229 16.274 34.8621 16.3209 34.7541 16.319L33.7103 16.3003C33.5903 16.2981 33.5432 16.2493 33.5453 16.1293L33.6156 12.2059L29.0923 12.1249C29.0443 12.124 28.9965 12.1112 28.9734 12.0628C28.9382 12.0141 28.9269 11.9779 28.9278 11.9299L28.9417 11.15C28.9426 11.1021 28.9552 11.0663 28.9919 11.0309C29.0165 10.9954 29.0649 10.9722 29.1129 10.9731L39.5632 11.1602C39.5992 11.1609 39.6348 11.1855 39.6821 11.2224C39.7173 11.271 39.7406 11.3074 39.74 11.3434L39.726 12.1233C39.7252 12.1713 39.7005 12.2069 39.6637 12.2542C39.6148 12.3013 39.5786 12.3127 39.5426 12.3121ZM30.4405 9.89268C30.3801 9.9156 30.3201 9.91453 30.2721 9.91367C30.2121 9.9126 30.1765 9.88796 30.1534 9.83953L29.7592 9.06435C29.7361 9.01593 29.7371 8.95594 29.762 8.90838C29.7868 8.86081 29.8235 8.82546 29.8959 8.80276C30.4626 8.65688 30.97 8.47394 31.4298 8.26614C31.8895 8.05834 32.278 7.81325 32.6193 7.51932C32.9486 7.22517 33.2188 6.88195 33.4177 6.50145C33.6165 6.12095 33.7444 5.67917 33.8015 5.17611C33.8023 5.12812 33.8272 5.08055 33.864 5.0332C33.9009 4.98586 33.9493 4.96272 34.0213 4.96401L35.0285 5.01805C35.1365 5.01999 35.1952 5.09305 35.193 5.21303C35.1647 5.45256 35.1367 5.6801 35.1092 5.87164C35.2112 6.20952 35.3856 6.52469 35.6324 6.81715C35.8792 7.10962 36.1742 7.39095 36.5058 7.63693C36.8375 7.8829 37.2176 8.10574 37.6223 8.29302C38.027 8.4803 38.4563 8.63201 38.8865 8.73573C38.9341 8.76059 38.9817 8.78544 39.017 8.82208C39.0402 8.8705 39.0513 8.91871 39.0264 8.96627L38.6523 9.7517C38.6024 9.85882 38.5178 9.89331 38.3982 9.86717C38.0156 9.7883 37.6216 9.67323 37.2284 9.51016C36.8353 9.3471 36.4668 9.14847 36.1227 8.92627C35.7666 8.70386 35.4587 8.47031 35.1755 8.2012C34.8921 7.94408 34.6568 7.67582 34.494 7.38486C34.0989 8.00189 33.5495 8.52013 32.8579 8.93982C32.1663 9.3595 31.3564 9.68105 30.4405 9.89268ZM50.4493 11.8113L49.3815 11.7921C49.2735 11.7902 49.2264 11.7414 49.2283 11.6334L49.2513 10.3496L46.7677 10.3051C46.4986 10.5883 46.1708 10.7985 45.7963 10.9358C45.4095 11.0849 44.9883 11.1494 44.5324 11.1412C44.1004 11.1335 43.7176 11.0666 43.3602 10.9162C43.0026 10.7778 42.7061 10.5804 42.4585 10.3359C42.2108 10.0915 42.0242 9.78808 41.8862 9.44956C41.7483 9.11103 41.695 8.73802 41.7023 8.33008C41.7091 7.94614 41.7756 7.58728 41.9256 7.25391C42.0756 6.92054 42.2729 6.62403 42.5294 6.37658C42.7858 6.12913 43.0894 5.93054 43.452 5.79301C43.8145 5.65547 44.1997 5.59036 44.6316 5.5981C45.1356 5.60712 45.6016 5.72348 46.0061 5.92276C46.4103 6.13403 46.7296 6.40379 46.9875 6.74446L49.3151 6.78615L49.3394 5.43036C49.3411 5.33438 49.3902 5.27525 49.4982 5.27718L50.566 5.29631C50.662 5.29803 50.7209 5.35909 50.7192 5.45507L50.6081 11.6581C50.6062 11.7661 50.5453 11.813 50.4493 11.8113ZM50.3505 16.6583L49.3187 16.6398C49.2707 16.6389 49.2229 16.6261 49.1876 16.5894C49.1522 16.5528 49.1409 16.5166 49.1417 16.4686L49.1905 13.745C49.192 13.661 49.1691 13.6006 49.1455 13.5762C49.1099 13.5516 49.0502 13.5385 48.9782 13.5372L43.4711 13.4386C43.4231 13.4377 43.3873 13.4251 43.3517 13.4004C43.3042 13.3756 43.2928 13.3394 43.2937 13.2914L43.3089 12.4395C43.3098 12.3915 43.3226 12.3437 43.3711 12.3206C43.4075 12.2973 43.4437 12.2859 43.4917 12.2868L49.8027 12.3998C50.1026 12.4051 50.3053 12.4808 50.4231 12.6029C50.5288 12.7368 50.5849 12.9539 50.5795 13.2538L50.5215 16.4933C50.5206 16.5413 50.496 16.5769 50.4594 16.6122C50.4227 16.6476 50.3865 16.6589 50.3505 16.6583ZM46.1651 8.43401C46.1737 7.95409 46.0366 7.56757 45.7538 7.27446C45.471 6.98135 45.0896 6.8305 44.6097 6.8219C44.1418 6.81352 43.7673 6.95084 43.4742 7.23363C43.1811 7.51643 43.0302 7.89779 43.0216 8.37771C43.0128 8.86963 43.1499 9.25615 43.4327 9.54926C43.7155 9.84237 44.0849 9.99301 44.5528 10.0014C45.0327 10.01 45.4192 9.87288 45.7123 9.59009C46.0054 9.30729 46.1563 8.92593 46.1651 8.43401ZM47.5213 8.43429C47.5162 8.72225 47.4757 8.97356 47.3994 9.21223L49.2711 9.24575L49.2954 7.88997L47.4716 7.85731C47.504 8.06192 47.5245 8.25432 47.5213 8.43429Z" fill="#7A7A7A"/>
</svg>
