<svg width="69" height="58" viewBox="0 0 69 58" fill="none" xmlns="http://www.w3.org/2000/svg">
<rect x="2.36719" y="0.5" width="15" height="15" fill="#0D0D0D"/>
<rect x="2.36719" y="0.5" width="15" height="15" stroke="#262626"/>
<path d="M10.6777 4.92969V12H9.59375V6.00391H9.55469L7.86523 7.10742V6.08203L9.62305 4.92969H10.6777Z" fill="#7A7A7A"/>
<rect x="2.36719" y="42.5" width="15" height="15" fill="#0D0D0D"/>
<rect x="2.36719" y="42.5" width="15" height="15" stroke="#262626"/>
<path d="M9.50195 54.0977C8.03711 54.0977 6.99707 53.3115 6.95312 52.1543H8.04688C8.08594 52.7744 8.70117 53.1699 9.49219 53.1699C10.3467 53.1699 10.9668 52.7061 10.9668 52.0176C10.9668 51.3193 10.3857 50.8213 9.375 50.8164H8.76953V49.9375H9.375C10.1807 49.9424 10.7422 49.4932 10.7422 48.8145C10.7422 48.1699 10.2588 47.7305 9.51172 47.7305C8.80371 47.7305 8.16895 48.126 8.14453 48.7656H7.10938C7.13867 47.6133 8.20312 46.832 9.52148 46.832C10.9131 46.832 11.7871 47.7109 11.7773 48.7559C11.7871 49.5615 11.2891 50.1377 10.5273 50.3281V50.377C11.4941 50.5137 12.0557 51.1631 12.0508 52.0566C12.0557 53.2334 10.9668 54.0977 9.50195 54.0977Z" fill="#7A7A7A"/>
<rect x="49.3672" y="42.5" width="15" height="15" fill="#0D0D0D"/>
<rect x="49.3672" y="42.5" width="15" height="15" stroke="#262626"/>
<path d="M53.8359 52.623V51.7539L56.9609 46.9297H58.2891V51.7148H59.2559V52.623H58.2891V54H57.2734V52.623H53.8359ZM54.9688 51.7148H57.2734V48.209H57.1953L54.9688 51.6562V51.7148Z" fill="#7A7A7A"/>
<rect x="49.3672" y="0.5" width="15" height="15" fill="#0D0D0D"/>
<rect x="49.3672" y="0.5" width="15" height="15" stroke="#262626"/>
<path d="M54.4922 12V11.2188L56.9434 8.74805C57.7197 7.94238 58.1055 7.49316 58.1055 6.87305C58.1055 6.1748 57.5391 5.73047 56.7969 5.73047C56.0107 5.73047 55.5127 6.22852 55.5078 6.98047H54.4922C54.4824 5.68652 55.4688 4.83203 56.8164 4.83203C58.1787 4.83203 59.1211 5.69629 59.1309 6.84375C59.1211 7.63477 58.75 8.26465 57.4219 9.56836L55.9863 11.0234V11.082H59.248V12H54.4922Z" fill="#7A7A7A"/>
<rect x="0.830811" y="18.8975" width="67.4034" height="18" rx="9" transform="rotate(1.02597 0.830811 18.8975)" fill="#1B1B1B"/>
<rect x="0.830811" y="18.8975" width="67.4034" height="18" rx="9" transform="rotate(1.02597 0.830811 18.8975)" stroke="#4B4B4B"/>
<path d="M26.1788 31.969C26.1728 32.305 26.0712 32.6152 25.8861 32.8999C25.701 33.1847 25.4447 33.4201 25.1171 33.6183C24.7895 33.8164 24.4028 33.9655 23.9689 34.0658C23.5228 34.1778 23.042 34.2172 22.5261 34.208C21.9742 34.1981 21.4832 34.1413 21.0534 34.0136C20.6114 33.8976 20.2422 33.735 19.9339 33.5255C19.6256 33.3159 19.39 33.0716 19.2272 32.7807C19.0641 32.5017 18.9857 32.1883 18.992 31.8403C18.998 31.5044 19.0873 31.2059 19.2605 30.921C19.4334 30.648 19.6776 30.4124 19.9932 30.214C20.3088 30.0156 20.6836 29.8663 21.1296 29.7543C21.5635 29.654 22.0565 29.6028 22.6084 29.6127C23.1243 29.622 23.6032 29.6905 24.0452 29.8065C24.475 29.9342 24.8561 30.097 25.1766 30.2948C25.4969 30.5046 25.7446 30.7491 25.9196 31.0282C26.0944 31.3194 26.1848 31.6331 26.1788 31.969ZM18.0196 29.1705C17.9103 29.2405 17.8259 29.263 17.7783 29.2382C17.7186 29.2251 17.6712 29.1882 17.6243 29.1274L17.1425 28.5547C17.06 28.4692 17.0253 28.3966 17.0504 28.337C17.0752 28.2894 17.1243 28.2303 17.1971 28.1836C17.6464 27.8916 18.048 27.5867 18.3897 27.2688C18.7315 26.9509 19.0139 26.5959 19.2369 26.2038C19.4598 25.8237 19.6357 25.3828 19.7645 24.893C19.8813 24.4031 19.9514 23.8402 19.963 23.1923C19.9638 23.1443 19.9767 23.0966 20.0255 23.0494C20.0622 23.0141 20.0986 22.9907 20.1466 22.9916L21.2015 23.0585C21.2975 23.0602 21.3565 23.1213 21.3543 23.2412C21.3416 23.9491 21.2705 24.572 21.141 25.0977C21.2554 25.4118 21.4182 25.7028 21.6175 25.9704C21.8165 26.25 22.028 26.5058 22.2638 26.7381C22.4997 26.9704 22.736 27.1786 22.973 27.3509C23.2099 27.5232 23.4475 27.6594 23.6618 27.7593C23.7927 27.8216 23.815 27.9181 23.7286 28.0485L23.2969 28.7009C23.2223 28.8436 23.1139 28.8657 22.9712 28.7911C22.4831 28.5663 22.0324 28.2702 21.6191 27.8907C21.2058 27.5113 20.8534 27.0849 20.5736 26.6238C20.2884 27.1348 19.9321 27.5965 19.5169 27.9971C19.0894 28.4095 18.5904 28.7966 18.0196 29.1705ZM27.7802 26.9929L26.1484 26.9637L26.1054 29.3633C26.1046 29.4113 26.0799 29.4469 26.0553 29.4824C26.0187 29.5178 25.9825 29.5291 25.9465 29.5285L24.8786 29.5094C24.8306 29.5085 24.7949 29.4959 24.7715 29.4594C24.7362 29.4228 24.725 29.3746 24.7259 29.3266L24.8393 22.9916C24.841 22.8956 24.8901 22.8365 24.9981 22.8384L26.0659 22.8575C26.1619 22.8593 26.2208 22.9203 26.2191 23.0163L26.1688 25.8239L27.8006 25.8531C27.8366 25.8537 27.8721 25.8784 27.9077 25.903C27.9433 25.9277 27.9666 25.9641 27.966 26.0001L27.9509 26.8399C27.9501 26.8879 27.9254 26.9235 27.889 26.9468C27.8524 26.9822 27.8162 26.9935 27.7802 26.9929ZM24.7624 31.9797C24.7658 31.7877 24.7091 31.6067 24.5919 31.4485C24.4745 31.3024 24.3089 31.1674 24.1188 31.056C23.9166 30.9564 23.6901 30.8683 23.4272 30.8036C23.1641 30.7509 22.8768 30.7097 22.5889 30.7045C21.941 30.6929 21.4231 30.7917 21.0233 31.0006C20.6235 31.2094 20.4262 31.5059 20.4191 31.9019C20.4156 32.0939 20.4606 32.2627 20.566 32.4086C20.6714 32.5545 20.813 32.6891 21.0033 32.7885C21.1935 32.8879 21.42 32.976 21.6831 33.0287C21.9462 33.0814 22.2337 33.1106 22.5457 33.1162C22.8336 33.1213 23.122 33.1025 23.3868 33.0592C23.6516 33.0159 23.8811 32.936 24.0868 32.8437C24.2805 32.7512 24.4508 32.6222 24.5734 32.4804C24.6959 32.3385 24.7589 32.1716 24.7624 31.9797ZM39.5426 30.3121L34.9953 30.2306L34.9251 34.154C34.9229 34.274 34.8621 34.3209 34.7541 34.319L33.7103 34.3003C33.5903 34.2981 33.5432 34.2493 33.5453 34.1293L33.6156 30.2059L29.0923 30.1249C29.0443 30.124 28.9965 30.1112 28.9734 30.0628C28.9382 30.0141 28.9269 29.9779 28.9278 29.9299L28.9417 29.15C28.9426 29.1021 28.9552 29.0663 28.9919 29.0309C29.0165 28.9954 29.0649 28.9722 29.1129 28.9731L39.5632 29.1602C39.5992 29.1609 39.6348 29.1855 39.6821 29.2224C39.7173 29.271 39.7406 29.3074 39.74 29.3434L39.726 30.1233C39.7252 30.1713 39.7005 30.2069 39.6637 30.2542C39.6148 30.3013 39.5786 30.3127 39.5426 30.3121ZM30.4405 27.8927C30.3801 27.9156 30.3201 27.9145 30.2721 27.9137C30.2121 27.9126 30.1765 27.888 30.1534 27.8395L29.7592 27.0644C29.7361 27.0159 29.7371 26.9559 29.762 26.9084C29.7868 26.8608 29.8235 26.8255 29.8959 26.8028C30.4626 26.6569 30.97 26.4739 31.4298 26.2661C31.8895 26.0583 32.278 25.8133 32.6193 25.5193C32.9486 25.2252 33.2188 24.8819 33.4177 24.5014C33.6165 24.1209 33.7444 23.6792 33.8015 23.1761C33.8023 23.1281 33.8272 23.0806 33.864 23.0332C33.9009 22.9859 33.9493 22.9627 34.0213 22.964L35.0285 23.0181C35.1365 23.02 35.1952 23.093 35.193 23.213C35.1647 23.4526 35.1367 23.6801 35.1092 23.8716C35.2112 24.2095 35.3856 24.5247 35.6324 24.8172C35.8792 25.1096 36.1742 25.3909 36.5058 25.6369C36.8375 25.8829 37.2176 26.1057 37.6223 26.293C38.027 26.4803 38.4563 26.632 38.8865 26.7357C38.9341 26.7606 38.9817 26.7854 39.017 26.8221C39.0402 26.8705 39.0513 26.9187 39.0264 26.9663L38.6523 27.7517C38.6024 27.8588 38.5178 27.8933 38.3982 27.8672C38.0156 27.7883 37.6216 27.6732 37.2284 27.5102C36.8353 27.3471 36.4668 27.1485 36.1227 26.9263C35.7666 26.7039 35.4587 26.4703 35.1755 26.2012C34.8921 25.9441 34.6568 25.6758 34.494 25.3849C34.0989 26.0019 33.5495 26.5201 32.8579 26.9398C32.1663 27.3595 31.3564 27.681 30.4405 27.8927ZM50.4493 29.8113L49.3815 29.7921C49.2735 29.7902 49.2264 29.7414 49.2283 29.6334L49.2513 28.3496L46.7677 28.3051C46.4986 28.5883 46.1708 28.7985 45.7963 28.9358C45.4095 29.0849 44.9883 29.1494 44.5324 29.1412C44.1004 29.1335 43.7176 29.0666 43.3602 28.9162C43.0026 28.7778 42.7061 28.5804 42.4585 28.3359C42.2108 28.0915 42.0242 27.7881 41.8862 27.4496C41.7483 27.111 41.695 26.738 41.7023 26.3301C41.7091 25.9461 41.7756 25.5873 41.9256 25.2539C42.0756 24.9205 42.2729 24.624 42.5294 24.3766C42.7858 24.1291 43.0894 23.9305 43.452 23.793C43.8145 23.6555 44.1997 23.5904 44.6316 23.5981C45.1356 23.6071 45.6016 23.7235 46.0061 23.9228C46.4103 24.134 46.7296 24.4038 46.9875 24.7445L49.3151 24.7861L49.3394 23.4304C49.3411 23.3344 49.3902 23.2752 49.4982 23.2772L50.566 23.2963C50.662 23.298 50.7209 23.3591 50.7192 23.4551L50.6081 29.6581C50.6062 29.7661 50.5453 29.813 50.4493 29.8113ZM50.3505 34.6583L49.3187 34.6398C49.2707 34.6389 49.2229 34.6261 49.1876 34.5894C49.1522 34.5528 49.1409 34.5166 49.1417 34.4686L49.1905 31.745C49.192 31.661 49.1691 31.6006 49.1455 31.5762C49.1099 31.5516 49.0502 31.5385 48.9782 31.5372L43.4711 31.4386C43.4231 31.4377 43.3873 31.4251 43.3517 31.4004C43.3042 31.3756 43.2928 31.3394 43.2937 31.2914L43.3089 30.4395C43.3098 30.3915 43.3226 30.3437 43.3711 30.3206C43.4075 30.2973 43.4437 30.2859 43.4917 30.2868L49.8027 30.3998C50.1026 30.4051 50.3053 30.4808 50.4231 30.6029C50.5288 30.7368 50.5849 30.9539 50.5795 31.2538L50.5215 34.4933C50.5206 34.5413 50.496 34.5769 50.4594 34.6122C50.4227 34.6476 50.3865 34.6589 50.3505 34.6583ZM46.1651 26.434C46.1737 25.9541 46.0366 25.5676 45.7538 25.2745C45.471 24.9813 45.0896 24.8305 44.6097 24.8219C44.1418 24.8135 43.7673 24.9508 43.4742 25.2336C43.1811 25.5164 43.0302 25.8978 43.0216 26.3777C43.0128 26.8696 43.1499 27.2562 43.4327 27.5493C43.7155 27.8424 44.0849 27.993 44.5528 28.0014C45.0327 28.01 45.4192 27.8729 45.7123 27.5901C46.0054 27.3073 46.1563 26.9259 46.1651 26.434ZM47.5213 26.4343C47.5162 26.7222 47.4757 26.9736 47.3994 27.2122L49.2711 27.2458L49.2954 25.89L47.4716 25.8573C47.504 26.0619 47.5245 26.2543 47.5213 26.4343Z" fill="#7A7A7A"/>
</svg>
