<svg width="20" height="20" viewBox="0 0 20 20" fill="none" xmlns="http://www.w3.org/2000/svg">
<path fill-rule="evenodd" clip-rule="evenodd" d="M6.51452 2H13.4855C15.9761 2 18 4.02392 18 6.51452V13.4855C18 14.6828 17.5244 15.8311 16.6777 16.6777C15.8311 17.5244 14.6828 18 13.4855 18H6.51452C4.02392 18 2 15.9761 2 13.4855V6.51452C2 5.3172 2.47564 4.16891 3.32227 3.32227C4.16891 2.47564 5.3172 2 6.51452 2ZM6.34855 3.06224C5.47696 3.06224 4.64108 3.40848 4.02478 4.02478C3.40848 4.64108 3.06224 5.47696 3.06224 6.34855V13.6515C3.06224 15.4679 4.5321 16.9378 6.34855 16.9378H13.6515C14.523 16.9378 15.3589 16.5915 15.9752 15.9752C16.5915 15.3589 16.9378 14.523 16.9378 13.6515V6.34855C16.9378 4.5321 15.4679 3.06224 13.6515 3.06224H6.34855ZM14.3568 4.90456C14.5527 4.90456 14.7406 4.98238 14.8791 5.12089C15.0176 5.2594 15.0954 5.44727 15.0954 5.64315C15.0954 5.83904 15.0176 6.0269 14.8791 6.16541C14.7406 6.30393 14.5527 6.38174 14.3568 6.38174C14.161 6.38174 13.9731 6.30393 13.8346 6.16541C13.6961 6.0269 13.6183 5.83904 13.6183 5.64315C13.6183 5.44727 13.6961 5.2594 13.8346 5.12089C13.9731 4.98238 14.161 4.90456 14.3568 4.90456ZM10 6.14938C11.0212 6.14938 12.0007 6.55507 12.7228 7.2772C13.4449 7.99933 13.8506 8.97875 13.8506 10C13.8506 11.0212 13.4449 12.0007 12.7228 12.7228C12.0007 13.4449 11.0212 13.8506 10 13.8506C8.97875 13.8506 7.99933 13.4449 7.2772 12.7228C6.55507 12.0007 6.14938 11.0212 6.14938 10C6.14938 8.97875 6.55507 7.99933 7.2772 7.2772C7.99933 6.55507 8.97875 6.14938 10 6.14938ZM10 7.21162C9.26048 7.21162 8.55124 7.50539 8.02832 8.02832C7.50539 8.55124 7.21162 9.26048 7.21162 10C7.21162 10.7395 7.50539 11.4488 8.02832 11.9717C8.55124 12.4946 9.26048 12.7884 10 12.7884C10.7395 12.7884 11.4488 12.4946 11.9717 11.9717C12.4946 11.4488 12.7884 10.7395 12.7884 10C12.7884 9.26048 12.4946 8.55124 11.9717 8.02832C11.4488 7.50539 10.7395 7.21162 10 7.21162Z" fill="#808080"/>
</svg>
