<svg width="20" height="20" viewBox="0 0 20 20" fill="none" xmlns="http://www.w3.org/2000/svg">
<path d="M2.92076 11.5357L2.97936 11.4436L6.51198 5.91728C6.56358 5.83634 6.68498 5.84473 6.72403 5.93261C7.3142 7.25527 7.82344 8.90019 7.58486 9.92425C7.48301 10.3456 7.204 10.9162 6.89006 11.4436C6.8496 11.5203 6.80496 11.5957 6.75753 11.6682C6.73519 11.7017 6.69753 11.7213 6.65707 11.7213H3.02399C2.92634 11.7213 2.86915 11.6152 2.92076 11.5357Z" fill="#808080" />
<path d="M18.667 12.5626V13.4374C18.667 13.4876 18.6363 13.5323 18.5917 13.5518C18.3182 13.669 17.3821 14.0987 16.9928 14.64C15.9994 16.0227 15.2405 17.9996 13.5439 17.9996H6.46615C3.95759 17.9996 1.9248 15.9599 1.9248 13.443V13.362C1.9248 13.2951 1.97921 13.2407 2.04621 13.2407H5.99176C6.06989 13.2407 6.12711 13.3132 6.12014 13.3899C6.09222 13.6467 6.13966 13.909 6.26103 14.1475C6.49545 14.6233 6.98097 14.9205 7.50557 14.9205H9.45881V13.3955H7.52787C7.42883 13.3955 7.37022 13.2811 7.42744 13.2002C7.44835 13.1681 7.47207 13.1346 7.49718 13.097C7.67996 12.8375 7.94084 12.4342 8.20036 11.9752C8.37753 11.6655 8.54915 11.3348 8.68727 11.0028C8.71518 10.9428 8.73751 10.8814 8.75981 10.8214C8.79751 10.7154 8.83655 10.6163 8.86447 10.5173C8.89235 10.4336 8.91468 10.3457 8.93701 10.2633C9.00259 9.98151 9.0305 9.68294 9.0305 9.3732C9.0305 9.25183 9.02492 9.12488 9.01375 9.00347C9.00817 8.87094 8.99142 8.7384 8.97467 8.60586C8.96351 8.48865 8.9426 8.37286 8.92027 8.25149C8.89235 8.07429 8.8533 7.89851 8.80864 7.72131L8.79331 7.65435C8.75981 7.53298 8.73193 7.41716 8.69285 7.29578C8.58264 6.91489 8.45566 6.54377 8.32173 6.19637C8.27291 6.05825 8.21708 5.92572 8.16128 5.79318C8.07896 5.59365 7.99525 5.41228 7.91854 5.24067C7.87946 5.16254 7.84596 5.09138 7.8125 5.01884C7.77484 4.93651 7.73576 4.85422 7.69671 4.77606C7.66879 4.71607 7.63669 4.66027 7.61438 4.60447L7.3758 4.16359C7.34231 4.1036 7.39814 4.03244 7.46368 4.05057L8.95654 4.45519H8.96073C8.96351 4.45519 8.96493 4.45658 8.96632 4.45658L9.16304 4.51099L9.37929 4.57237L9.45881 4.5947V3.70737C9.45881 3.27904 9.80204 2.93164 10.2262 2.93164C10.4382 2.93164 10.6308 3.01813 10.7689 3.15905C10.907 3.29998 10.9935 3.49251 10.9935 3.70737V5.02442L11.1526 5.06905C11.1651 5.07324 11.1777 5.07883 11.1889 5.08719C11.2279 5.11649 11.2837 5.15976 11.3549 5.21275C11.4107 5.25742 11.4707 5.31182 11.5432 5.36762C11.6869 5.48344 11.8585 5.63273 12.0469 5.80431C12.0971 5.84759 12.146 5.89222 12.1906 5.93688C12.4334 6.16288 12.7054 6.42798 12.9649 6.72097C13.0375 6.80326 13.1086 6.88698 13.1812 6.97488C13.2537 7.06418 13.3305 7.15208 13.3974 7.23999C13.4853 7.35716 13.5802 7.47854 13.6625 7.60552C13.7016 7.66551 13.7462 7.72689 13.7839 7.78688C13.8899 7.94734 13.9834 8.11337 14.0727 8.27937C14.1104 8.35611 14.1494 8.43983 14.1829 8.52215C14.282 8.74398 14.3601 8.97001 14.4103 9.19603C14.4257 9.24486 14.4368 9.29788 14.4424 9.34532V9.35645C14.4591 9.42345 14.4647 9.4946 14.4703 9.56715C14.4926 9.79873 14.4815 10.0303 14.4313 10.2633C14.4103 10.3624 14.3824 10.4559 14.3489 10.5549C14.3154 10.6498 14.282 10.7489 14.2387 10.8423C14.155 11.0363 14.0559 11.2302 13.9387 11.4116C13.9011 11.4785 13.8564 11.5497 13.8118 11.6167C13.763 11.6878 13.7127 11.7548 13.6681 11.8204C13.6067 11.9041 13.5411 11.992 13.4742 12.0701C13.4142 12.1524 13.3528 12.2347 13.2858 12.3073C13.1923 12.4175 13.103 12.5221 13.0096 12.6226C12.9538 12.6882 12.8938 12.7551 12.8324 12.8151C12.7724 12.8821 12.711 12.9421 12.6552 12.9979C12.5617 13.0914 12.4836 13.1639 12.418 13.2239L12.2645 13.3648C12.2422 13.3844 12.2129 13.3955 12.1822 13.3955H10.9935V14.9205H12.4892C12.824 14.9205 13.1421 14.8019 13.3988 14.5842C13.4867 14.5075 13.8704 14.1754 14.3238 13.6746C14.3392 13.6578 14.3587 13.6453 14.381 13.6397L18.5122 12.4454C18.5889 12.4231 18.667 12.4817 18.667 12.5626Z" fill="#808080" />
</svg>
