<svg width="20" height="20" viewBox="0 0 20 20" fill="none" xmlns="http://www.w3.org/2000/svg">
<g clip-path="url(#clip0_558_609)">
<path fill-rule="evenodd" clip-rule="evenodd" d="M16.9607 5.07216C17.4407 5.5543 17.7396 6.19453 17.8047 6.88025L17.8375 7.23772L17.8378 7.24126L17.8996 8.00945L17.8997 8.01068C17.9574 8.80803 18 9.67413 18 10.5C18 11.3259 17.9574 12.192 17.8997 12.9893L17.8996 12.9905L17.8377 13.7603L17.8376 13.7615C17.8269 13.8847 17.8162 14.0029 17.8048 14.1181L17.8047 14.1194C17.7397 14.8054 17.4407 15.4458 16.9604 15.9281C16.4801 16.4103 15.8491 16.7035 15.1788 16.7559L14.5006 16.8093L14.4983 16.8095L13.7566 16.8619L13.7537 16.862L12.96 16.9102L12.1291 16.951C11.4198 16.9826 10.7099 16.9989 10 17C9.29006 16.9989 8.5795 16.9825 7.87023 16.9509L7.04004 16.9102L6.24709 16.862L6.24425 16.8619L5.5025 16.8095L5.5002 16.8093L4.82031 16.7559C4.15012 16.7033 3.51948 16.4101 3.03934 15.9278C2.55931 15.4457 2.26041 14.8051 2.19528 14.1194L2.16233 13.7605L2.10029 12.9888C2.03745 12.1604 2.004 11.3301 2 10.4993C2.00003 9.67361 2.04264 8.8078 2.10034 8.01069L2.1624 7.23873C2.17311 7.1154 2.18375 6.99718 2.19516 6.8819L2.19528 6.88061C2.2603 6.19488 2.55907 5.5546 3.03905 5.07239C3.51904 4.59017 4.14984 4.29686 4.8199 4.2441L5.49972 4.18977L6.24383 4.13807L7.0392 4.08975L7.87005 4.04903C8.5797 4.01744 9.28992 4.0011 10.0002 4C10.7045 4 11.4284 4.01861 12.1301 4.04907L12.96 4.08975L13.7532 4.13798L13.7558 4.13814L14.4986 4.18977L15.1797 4.24413C15.8499 4.29672 16.4805 4.58992 16.9607 5.07216ZM10 5.08901C9.31024 5.08901 8.60144 5.10786 7.91302 5.13691L7.09935 5.17697L6.31697 5.22394L5.58221 5.27517L4.90973 5.32892C4.4873 5.35991 4.08917 5.5431 3.7858 5.84609C3.48217 6.14933 3.29306 6.55315 3.25201 6.98568C3.1545 8.01867 3.06224 9.31011 3.06224 10.5C3.06224 11.6899 3.15452 12.9815 3.25203 14.0145C3.33682 14.9063 4.02815 15.5969 4.9075 15.6709L5.57963 15.7238L6.31416 15.775L7.09591 15.8228L7.91097 15.863L7.91302 15.8631C8.60144 15.8921 9.31025 15.911 10 15.911C10.6898 15.911 11.3986 15.8921 12.087 15.8631L12.9006 15.823L13.683 15.7761L14.4178 15.7248L15.0892 15.6712L15.0903 15.6711C15.5127 15.6401 15.9108 15.4569 16.2142 15.1539C16.5178 14.8507 16.7069 14.4469 16.748 14.0143C16.8455 12.9813 16.9378 11.6899 16.9378 10.5C16.9378 9.31011 16.8455 8.01851 16.748 6.98553C16.7069 6.553 16.5178 6.14933 16.2142 5.84609C15.9108 5.54305 15.5117 5.35979 15.0892 5.32884L14.4204 5.27621L13.6858 5.22498L12.9041 5.17716L12.089 5.137L12.0875 5.13693C11.3923 5.10626 10.6959 5.09029 10 5.08901ZM8.639 12.553V8.43685C8.63898 8.40358 8.64689 8.37062 8.66203 8.3412C8.67717 8.31179 8.6991 8.28661 8.72589 8.26786C8.75269 8.24911 8.78355 8.23735 8.81579 8.23361C8.84476 8.23026 8.87405 8.23346 8.90161 8.24295L8.94618 8.26552L12.4233 10.3229C12.4511 10.3393 12.4746 10.3624 12.4918 10.3901C12.509 10.4178 12.5194 10.4494 12.5222 10.4821C12.525 10.5148 12.52 10.5478 12.5077 10.5781C12.4966 10.6055 12.4798 10.63 12.4586 10.65L12.4114 10.6841L8.93742 12.7405C8.90933 12.7572 8.87768 12.7666 8.84524 12.7679C8.8128 12.7691 8.78054 12.7622 8.75129 12.7478C8.72203 12.7334 8.69665 12.7119 8.67737 12.6851C8.65999 12.6609 8.64804 12.6332 8.64231 12.6039L8.639 12.553Z" fill="#808080"/>
</g>
<defs>
<clipPath id="clip0_558_609">
<rect width="20" height="20" fill="white"/>
</clipPath>
</defs>
</svg>
